<?xml version="1.0" standalone="no"?>
<!DOCTYPE svg PUBLIC "-//W3C//DTD SVG 20010904//EN"
 "http://www.w3.org/TR/2001/REC-SVG-20010904/DTD/svg10.dtd">
<svg version="1.0" xmlns="http://www.w3.org/2000/svg"
 width="80.000000pt" height="80.000000pt" viewBox="0 0 80.000000 80.000000"
 preserveAspectRatio="xMidYMid meet">
<metadata>
Created by potrace 1.11, written by Peter Selinger 2001-2013
</metadata>
<g transform="translate(0.000000,80.000000) scale(0.100000,-0.100000)"
fill="#000000" stroke="none">
<path d="M214 705 c-38 -7 -86 -20 -105 -30 -58 -29 -99 -90 -86 -127 2 -7 -2
-26 -10 -41 -14 -29 -9 -52 9 -41 7 5 9 -5 4 -30 -4 -23 -3 -36 4 -36 16 0 12
-21 -11 -64 -21 -39 -20 -86 3 -86 6 0 3 -9 -7 -20 -10 -11 -13 -20 -7 -20 7
0 12 -18 12 -45 0 -32 6 -51 20 -65 19 -19 33 -20 358 -20 267 0 342 3 357 13
22 17 41 127 23 138 -8 5 -6 12 5 24 21 20 21 39 3 68 -19 31 -29 77 -16 77 6
0 8 15 4 39 -5 30 -3 39 11 44 14 6 15 9 2 28 -8 11 -13 29 -10 39 9 32 -27
89 -72 116 -24 13 -76 31 -116 39 -90 17 -279 17 -375 0z"/>
</g>
</svg>
