<?xml version="1.0" standalone="no"?>
<!DOCTYPE svg PUBLIC "-//W3C//DTD SVG 20010904//EN"
 "http://www.w3.org/TR/2001/REC-SVG-20010904/DTD/svg10.dtd">
<svg version="1.0" xmlns="http://www.w3.org/2000/svg"
 width="260.000000pt" height="260.000000pt" viewBox="0 0 260.000000 260.000000"
 preserveAspectRatio="xMidYMid meet">
<metadata>
Created by potrace 1.11, written by Peter Selinger 2001-2013
</metadata>
<g transform="translate(0.000000,260.000000) scale(0.100000,-0.100000)"
fill="#000000" stroke="none">
<path d="M1085 2118 c-84 -14 -188 -40 -225 -55 -208 -86 -317 -176 -380 -316
-16 -35 -31 -90 -34 -122 -4 -43 -12 -64 -31 -83 -24 -23 -25 -30 -25 -138 0
-97 3 -117 18 -132 18 -18 18 -20 -4 -47 -28 -35 -46 -104 -39 -147 8 -44 34
-96 55 -111 17 -12 16 -16 -16 -68 -44 -71 -50 -110 -20 -142 12 -13 30 -28
39 -33 11 -7 17 -27 20 -74 5 -76 16 -107 48 -136 51 -46 34 -45 809 -45 812
0 770 -3 824 61 14 18 27 37 27 43 3 18 7 89 8 118 1 17 9 29 26 37 30 14 54
59 48 92 -2 14 -18 49 -36 78 l-33 54 26 28 c55 59 60 162 12 235 -26 38 -27
41 -10 57 15 15 18 36 18 129 0 112 -9 149 -35 149 -9 0 -15 10 -16 23 -3 87
-14 128 -51 202 -87 168 -294 291 -575 340 -87 15 -369 17 -448 3z"/>
</g>
</svg>
